<svg width="40" height="41" viewBox="0 0 40 41" fill="none" xmlns="http://www.w3.org/2000/svg">
<path d="M22.0559 0.0263866C23.5154 0.0207861 24.9749 0.0354544 26.4339 0.0703867L26.8219 0.0843867C27.2699 0.100387 27.7119 0.120387 28.2459 0.144387C30.3739 0.244387 31.8259 0.580387 33.0999 1.07439C34.4199 1.58239 35.5319 2.27039 36.6439 3.38239C37.6607 4.3816 38.4476 5.59028 38.9499 6.92439C39.4439 8.19839 39.7799 9.65239 39.8799 11.7804C39.9039 12.3124 39.9239 12.7564 39.9399 13.2044L39.9519 13.5924C39.9875 15.0508 40.0028 16.5096 39.9979 17.9684L39.9999 19.4604V22.0804C40.0049 23.5399 39.9895 24.9993 39.9539 26.4584L39.9419 26.8464C39.9259 27.2944 39.9059 27.7364 39.8819 28.2704C39.7819 30.3984 39.4419 31.8504 38.9499 33.1244C38.4492 34.4599 37.6621 35.6696 36.6439 36.6684C35.6439 37.685 34.4346 38.4719 33.0999 38.9744C31.8259 39.4684 30.3739 39.8044 28.2459 39.9044C27.7119 39.9284 27.2699 39.9484 26.8219 39.9644L26.4339 39.9764C24.9749 40.0119 23.5154 40.0273 22.0559 40.0224L20.5639 40.0244H17.9459C16.4865 40.0293 15.027 40.014 13.5679 39.9784L13.1799 39.9664C12.7052 39.9492 12.2305 39.9292 11.7559 39.9064C9.62793 39.8064 8.17593 39.4664 6.89993 38.9744C5.5653 38.4731 4.35641 37.686 3.35793 36.6684C2.34002 35.669 1.55238 34.4595 1.04993 33.1244C0.555933 31.8504 0.219933 30.3984 0.119933 28.2704C0.097659 27.7958 0.0776588 27.3211 0.0599332 26.8464L0.0499335 26.4584C0.0130607 24.9994 -0.0036078 23.5399 -6.67017e-05 22.0804V17.9684C-0.00564863 16.5096 0.00901959 15.0508 0.0439334 13.5924L0.0579334 13.2044C0.0739334 12.7564 0.0939333 12.3124 0.117933 11.7804C0.217933 9.65039 0.553933 8.20039 1.04793 6.92439C1.55068 5.58963 2.33986 4.38128 3.35993 3.38439C4.35772 2.36589 5.56586 1.57753 6.89993 1.07439C8.17593 0.580387 9.62593 0.244387 11.7559 0.144387L13.1799 0.0843867L13.5679 0.0743869C15.0263 0.0375325 16.4851 0.0208641 17.9439 0.0243867L22.0559 0.0263866ZM19.9999 10.0264C18.6749 10.0076 17.3594 10.2524 16.1299 10.7465C14.9003 11.2406 13.7812 11.9741 12.8376 12.9045C11.894 13.8348 11.1447 14.9435 10.6333 16.1659C10.1219 17.3884 9.85852 18.7003 9.85852 20.0254C9.85852 21.3505 10.1219 22.6624 10.6333 23.8849C11.1447 25.1073 11.894 26.2159 12.8376 27.1463C13.7812 28.0766 14.9003 28.8102 16.1299 29.3043C17.3594 29.7983 18.6749 30.0431 19.9999 30.0244C22.6521 30.0244 25.1956 28.9708 27.071 27.0955C28.9464 25.2201 29.9999 22.6766 29.9999 20.0244C29.9999 17.3722 28.9464 14.8287 27.071 12.9533C25.1956 11.078 22.6521 10.0264 19.9999 10.0264ZM19.9999 14.0264C20.7969 14.0117 21.5889 14.156 22.3295 14.4508C23.0702 14.7456 23.7446 15.1851 24.3135 15.7435C24.8824 16.3019 25.3343 16.9681 25.6428 17.7031C25.9514 18.4381 26.1103 19.2272 26.1105 20.0244C26.1106 20.8215 25.9519 21.6107 25.6436 22.3458C25.3353 23.0809 24.8836 23.7473 24.3149 24.3059C23.7462 24.8645 23.0719 25.3041 22.3314 25.5992C21.5909 25.8943 20.799 26.0388 20.0019 26.0244C18.4106 26.0244 16.8845 25.3922 15.7593 24.267C14.6341 23.1418 14.0019 21.6157 14.0019 20.0244C14.0019 18.4331 14.6341 16.907 15.7593 15.7817C16.8845 14.6565 18.4106 14.0244 20.0019 14.0244L19.9999 14.0264ZM30.4999 7.02639C29.8547 7.05221 29.2445 7.32669 28.7971 7.79233C28.3498 8.25797 28.0999 8.87866 28.0999 9.52439C28.0999 10.1701 28.3498 10.7908 28.7971 11.2564C29.2445 11.7221 29.8547 11.9966 30.4999 12.0224C31.163 12.0224 31.7989 11.759 32.2677 11.2902C32.7365 10.8213 32.9999 10.1854 32.9999 9.52239C32.9999 8.85935 32.7365 8.22346 32.2677 7.75462C31.7989 7.28578 31.163 7.02239 30.4999 7.02239V7.02639Z" fill="#E2F4FC"/>
</svg>
