<svg width="40" height="33" viewBox="0 0 40 33" fill="none" xmlns="http://www.w3.org/2000/svg">
<path d="M39.0183 4.43316C37.6183 5.08357 36.1092 5.51098 34.5456 5.71539C36.1456 4.73049 37.3819 3.16951 37.9638 1.29263C36.4547 2.22178 34.7819 2.87219 33.0183 3.24385C31.5819 1.64571 29.5638 0.716553 27.2728 0.716553C23.0001 0.716553 19.5092 4.2845 19.5092 8.68868C19.5092 9.3205 19.5819 9.93374 19.7092 10.5098C13.2365 10.1753 7.47284 6.99762 3.63648 2.18461C2.96375 3.35534 2.58193 4.73049 2.58193 6.17997C2.58193 8.94884 3.94557 11.4018 6.05466 12.7955C4.76375 12.7955 3.56375 12.4239 2.50921 11.8664V11.9221C2.50921 15.7874 5.20012 19.0208 8.76375 19.7456C7.61962 20.0656 6.41847 20.1101 5.25466 19.8757C5.74849 21.4598 6.71564 22.846 8.02015 23.8393C9.32465 24.8326 10.9009 25.3831 12.5274 25.4134C9.77035 27.6442 6.35284 28.85 2.83648 28.8327C2.2183 28.8327 1.60012 28.7955 0.981934 28.7212C4.43648 30.9883 8.54557 32.3077 12.9456 32.3077C27.2728 32.3077 35.1456 20.1544 35.1456 9.61783C35.1456 9.26475 35.1456 8.93026 35.1274 8.57718C36.6547 7.4622 37.9637 6.04989 39.0183 4.43316Z" fill="#E2F4FC"/>
</svg>
